<svg xmlns="http://www.w3.org/2000/svg" viewBox="0 0 504.01 207.38"><g id="Layer_2" data-name="Layer 2"><g id="Layer_1-2" data-name="Layer 1"><path d="M498.8,111.36c-6.28-16.57-21.21-33.18-38.62-29.91,11.49,4.18,11.69,20.28,8.94,32.2-1.63,7.07-3.69,14.35-8.46,19.82-9,10.33-25.8,11-37.76,4.3s-19.68-19.13-24.56-31.94-7.42-26.4-12-39.33c-9.27-26.29-28-50.18-53.66-61-28.4-11.93-63.6-4.17-80.7,19.89C234.9,1.35,199.7-6.41,171.3,5.52c-25.7,10.8-44.39,34.69-53.67,61-4.55,12.93-7.1,26.52-12,39.33S93,131.06,81.08,137.77s-28.73,6-37.75-4.29c-4.77-5.48-6.83-12.75-8.46-19.83-2.75-11.92-2.55-28,8.94-32.2C26.4,78.2,11.47,94.8,5.19,111.36c-3.86,10.19-6,21.2-4.89,32,2.21,21,16.89,39.32,35.22,49.79s39.91,13.93,61,14.18c45.83.55,92.87-14.33,125.8-46.21A137.37,137.37,0,0,0,252,118.39a137.35,137.35,0,0,0,29.66,42.76c32.92,31.88,80,46.75,125.8,46.21,21.11-.25,42.68-3.72,61-14.18s33-28.79,35.22-49.79c1.13-10.84-1-21.84-4.9-32Z"/></g></g></svg>